<svg width="24" height="25" viewBox="0 0 24 25" fill="none" xmlns="http://www.w3.org/2000/svg">
<path d="M8.7985 11.8695C9.03287 12.8851 7.91959 13.681 7.0358 13.1244L5.84928 12.3822L3.36393 16.3583C2.71305 17.3993 3.46178 18.7499 4.68961 18.7499H6.25309C7.11442 18.7499 7.81461 19.4491 7.81461 20.3104C7.81461 21.1718 7.11442 21.8754 6.25309 21.8754H4.6945C1.01481 21.8754 -1.22835 17.8305 0.716473 14.7074L3.19841 10.7318L2.00895 9.98476C1.12468 9.42812 1.35026 8.08046 2.36686 7.84608L6.83121 6.81337C7.25065 6.72304 7.67545 6.97694 7.77311 7.40175L8.7985 11.8695ZM13.8229 3.85487L15.8371 7.08437L14.653 7.82069C13.7663 8.37294 13.9904 9.72206 15.0084 9.9579L19.4712 10.9906C19.8922 11.088 20.3126 10.8252 20.4092 10.4042L21.4366 5.93983C21.6704 4.92372 20.5601 4.13075 19.6753 4.68202L18.4859 5.42421L16.4743 2.2035C14.6393 -0.733022 10.361 -0.734975 8.52506 2.20049L8.16373 2.77772C7.70963 3.50282 7.93424 4.47108 8.6569 4.92616C9.38541 5.38314 10.3547 5.16474 10.8107 4.43593L11.1741 3.85536C11.7965 2.85975 13.2272 2.89637 13.8229 3.85487ZM24.2819 14.7113L23.4523 13.3803C22.9964 12.6488 22.0334 12.4252 21.3019 12.8817C20.5724 13.3367 20.3488 14.3051 20.8048 15.0341L21.6344 16.3598C22.2863 17.4008 21.5376 18.7523 20.3092 18.7523H15.6222L15.6234 17.349C15.6234 16.3051 14.3612 15.7821 13.6229 16.5204L10.3802 19.7641C10.0764 20.0679 10.0764 20.5653 10.3804 20.869L13.6236 24.1083C14.3619 24.8456 15.6231 24.3225 15.6231 23.2792L15.622 21.8788H20.3026C23.984 21.8793 26.2301 17.8314 24.2819 14.7113Z" fill="white"/>
</svg>
